<!DOCTYPE svg PUBLIC "-//W3C//DTD SVG 1.1//EN" "http://www.w3.org/Graphics/SVG/1.1/DTD/svg11.dtd">
<svg 
	xmlns="http://www.w3.org/2000/svg" 
	xmlns:xlink="http://www.w3.org/1999/xlink" 
	version="1.1" 
	width="911px" 
	height="222px" 
	viewBox="-0.5 -0.5 911 222" 
	style="background-color: rgb(255, 255, 255);">
	<defs/>
	<g>
	<path d="M 100.18 20.41 L 129.59 20.41 L 129.59 49.82 L 160.18 49.82" fill="none" stroke="#000000" stroke-miterlimit="10" pointer-events="none"/>
	<path d="M 0 0 L 90 0 L 90 0 L 100 20 L 90 40 L 90 40 L 0 40 L 0 20 Z" fill="#ffffff" stroke="#000000" stroke-miterlimit="10" pointer-events="none"/>
	<path d="M 100.18 80.41 L 129.59 80.41 L 129.59 49.82 L 160.18 49.82" fill="none" stroke="#000000" stroke-miterlimit="10" pointer-events="none"/>
	<path d="M 0 60 L 90 60 L 90 60 L 100 80 L 90 100 L 90 100 L 0 100 L 0 80 Z" fill="#ffffff" stroke="#000000" stroke-miterlimit="10" pointer-events="none"/>
	<path d="M 260.18 49.82 L 289.59 49.82 L 289.59 109.82 L 320.18 109.82" fill="none" stroke="#000000" stroke-miterlimit="10" pointer-events="none"/>
	<path d="M 160 30 L 250 30 L 250 30 L 260 50 L 250 70 L 250 70 L 160 70 L 160 50 Z" fill="#ffffff" stroke="#000000" stroke-miterlimit="10" pointer-events="none"/>
	<path d="M 100.18 140.41 L 129.59 140.41 L 129.59 169.82 L 160.18 169.82" fill="none" stroke="#000000" stroke-miterlimit="10" pointer-events="none"/>
	<path d="M 0 120 L 90 120 L 90 120 L 100 140 L 90 160 L 90 160 L 0 160 L 0 140 Z" fill="#ffffff" stroke="#000000" stroke-miterlimit="10" pointer-events="none"/>
	<path d="M 100.18 200.41 L 129.59 200.41 L 129.59 169.82 L 160.18 169.82" fill="none" stroke="#000000" stroke-miterlimit="10" pointer-events="none"/>
	<path d="M 0 180 L 90 180 L 90 180 L 100 200 L 90 220 L 90 220 L 0 220 L 0 200 Z" fill="#ffffff" stroke="#000000" stroke-miterlimit="10" pointer-events="none"/>
	<path d="M 260.18 169.82 L 289.59 169.82 L 289.59 109.82 L 320.18 109.82" fill="none" stroke="#000000" stroke-miterlimit="10" pointer-events="none"/>
	<path d="M 160 150 L 250 150 L 250 150 L 260 170 L 250 190 L 250 190 L 160 190 L 160 170 Z" fill="#ffffff" stroke="#000000" stroke-miterlimit="10" pointer-events="none"/>
	<path d="M 809.59 20.41 L 784.88 20.41 L 784.88 49.82 L 760.18 49.82" fill="none" stroke="#000000" stroke-miterlimit="10" pointer-events="none"/>
	<path d="M 809.67 0 L 899.67 0 L 899.67 0 L 909.67 20 L 899.67 40 L 899.67 40 L 809.67 40 L 809.67 20 Z" fill="#ffffff" stroke="#000000" stroke-miterlimit="10" transform="rotate(180,859.67,20)" pointer-events="none"/><path d="M 809.59 80.41 L 784.88 80.41 L 784.88 49.82 L 760.17 49.82" fill="none" stroke="#000000" stroke-miterlimit="10" pointer-events="none"/><path d="M 809.67 60 L 899.67 60 L 899.67 60 L 909.67 80 L 899.67 100 L 899.67 100 L 809.67 100 L 809.67 80 Z" fill="#ffffff" stroke="#000000" stroke-miterlimit="10" transform="rotate(180,859.67,80)" pointer-events="none"/><path d="M 809.59 140.41 L 784.88 140.41 L 784.88 169.82 L 760.18 169.82" fill="none" stroke="#000000" stroke-miterlimit="10" pointer-events="none"/><path d="M 809.67 120 L 899.67 120 L 899.67 120 L 909.67 140 L 899.67 160 L 899.67 160 L 809.67 160 L 809.67 140 Z" fill="#ffffff" stroke="#000000" stroke-miterlimit="10" transform="rotate(180,859.67,140)" pointer-events="none"/><path d="M 809.59 200.41 L 784.88 200.41 L 784.88 169.82 L 760.18 169.82" fill="none" stroke="#000000" stroke-miterlimit="10" pointer-events="none"/><path d="M 809.67 180 L 899.67 180 L 899.67 180 L 909.67 200 L 899.67 220 L 899.67 220 L 809.67 220 L 809.67 200 Z" fill="#ffffff" stroke="#000000" stroke-miterlimit="10" transform="rotate(180,859.67,200)" pointer-events="none"/><path d="M 420.18 109.82 L 460.18 109.82 L 460.18 80.41" fill="none" stroke="#000000" stroke-miterlimit="10" pointer-events="none"/><path d="M 320 90 L 410 90 L 410 90 L 420 110 L 410 130 L 410 130 L 320 130 L 320 110 Z" fill="#ffffff" stroke="#000000" stroke-miterlimit="10" pointer-events="none"/><path d="M 660.18 49.82 L 630.76 49.82 L 630.76 109.82 L 600.18 109.82" fill="none" stroke="#000000" stroke-miterlimit="10" pointer-events="none"/><path d="M 660.17 30 L 750.17 30 L 750.17 30 L 760.17 50 L 750.17 70 L 750.17 70 L 660.17 70 L 660.17 50 Z" fill="#ffffff" stroke="#000000" stroke-miterlimit="10" transform="rotate(180,710.17,50)" pointer-events="none"/><path d="M 660.18 169.82 L 629.59 169.82 L 629.59 109.82 L 600.18 109.82" fill="none" stroke="#000000" stroke-miterlimit="10" pointer-events="none"/><path d="M 660.17 150 L 750.17 150 L 750.17 150 L 760.17 170 L 750.17 190 L 750.17 190 L 660.17 190 L 660.17 170 Z" fill="#ffffff" stroke="#000000" stroke-miterlimit="10" transform="rotate(180,710.17,170)" pointer-events="none"/><path d="M 500.18 109.82 L 460.18 109.82 L 460 80" fill="none" stroke="#000000" stroke-miterlimit="10" pointer-events="none"/><path d="M 500.17 90 L 590.17 90 L 590.17 90 L 600.17 110 L 590.17 130 L 590.17 130 L 500.17 130 L 500.17 110 Z" fill="#ffffff" stroke="#000000" stroke-miterlimit="10" transform="rotate(180,550.17,110)" pointer-events="none"/><path d="M 425 20 L 495 20 L 530 50 L 495 80 L 425 80 L 390 50 Z" fill="#ffffff" stroke="#000000" stroke-miterlimit="10" pointer-events="none"/></g></svg>